<svg width="294" height="284" viewBox="0 0 294 284" fill="none" xmlns="http://www.w3.org/2000/svg">
<path d="M2.0827 281.917L55.8327 228.167M209.916 163.667C209.916 114.192 169.808 74.084 120.333 74.084C70.8569 74.084 30.7494 114.192 30.7494 163.667C30.7494 213.143 70.8569 253.251 120.333 253.251" stroke="#E70000" stroke-opacity="0.45" stroke-width="4" stroke-linecap="round" stroke-linejoin="round"/>
<path d="M148.75 194.75L215.25 261.25" stroke="#F08889" stroke-width="4" stroke-linecap="round" stroke-linejoin="round"/>
<path d="M253.999 36.0006C263.572 36.0006 271.333 28.2403 271.333 18.6673C271.333 9.09438 263.572 1.33398 253.999 1.33398C244.426 1.33398 236.666 9.09438 236.666 18.6673C236.666 28.2403 244.426 36.0006 253.999 36.0006Z" fill="#F5BDB2" stroke="#F2D6D0" stroke-linecap="round" stroke-linejoin="round"/>
<path d="M255.332 78.666H227.063C220.773 78.666 216.079 73.121 219.284 67.7082C223.932 59.8575 233.942 50.666 255.332 50.666" fill="#F5BDB2"/>
<path d="M255.332 78.666H227.063C220.773 78.666 216.079 73.121 219.284 67.7082C223.932 59.8575 233.942 50.666 255.332 50.666" stroke="#F2D6D0" stroke-linecap="round" stroke-linejoin="round"/>
<path d="M274 78.6667L292.667 60" stroke="#F2D6D0" stroke-width="1.5" stroke-linecap="round" stroke-linejoin="round"/>
</svg>
